<svg xmlns="http://www.w3.org/2000/svg" xmlns:xlink="http://www.w3.org/1999/xlink" viewBox="0 0 256 256" width="102px" height="102px">
  <style type="text/css">
    @keyframes ld-pulse
{
  0% {
    animation-timing-function: cubic-bezier(0.0413,0.3905,0.5086,0.6902);
    transform: scale(1);
  }
  24.3% {
    animation-timing-function: cubic-bezier(0.2248,0.6332,0.5246,1);
    transform: scale(0.8458);
  }
  55% {
    animation-timing-function: cubic-bezier(0.3036,0.3393,0.655,0.6144);
    transform: scale(0.8022);
  }
  70.2% {
    animation-timing-function: cubic-bezier(0.4464,0.2728,0.5562,0.7288);
    transform: scale(0.8294);
  }
  82.3% {
    animation-timing-function: cubic-bezier(0.6826,0.1845,1,0.7358);
    transform: scale(0.869);
  }
  100% {
    transform: scale(1);
  }
}
.ld.ld-pulse {
  animation: ld-pulse 0.5s infinite;
}
    @keyframes ld-move {
      0% { transform: translate(0,0) }
      100% { transform: translate(256px,0) }
    }
  </style>
  <defs><g id="id-0.6471355538439401">
    
<!-- Generator: Adobe Illustrator 21.0.0, SVG Export Plug-In . SVG Version: 6.00 Build 0)  -->


<path fill="#FFFFFF" d="M67.86,121.993c-0.428,0.284-0.885,0.528-1.304,0.826c-0.605,0.429-1.156,0.933-1.644,1.491  c-1.683,1.924-2.629,4.501-2.532,7.06c0.144,3.823,2.503,7.429,5.835,9.31c4.046,2.283,9.32,1.998,13.286-0.422  c3.966-2.42,6.587-6.79,7.211-11.394c0.523-3.855-0.383-8.042-3.066-10.86c-2.683-2.818-7.295-3.879-10.644-1.899  c-0.836,0.494-1.641,1.041-2.401,1.647c-0.969,0.773-1.856,1.64-2.754,2.493c-0.496,0.471-0.985,0.962-1.511,1.399  C68.184,121.769,68.024,121.884,67.86,121.993z"/>
<path fill="#FFFFFF" d="M162.471,70.182c-1.378-0.377-2.287-0.351-3.486-1.212c-1.09-0.783-1.994-1.768-2.589-2.981  c-3.971-8.103,7.611-15.86,14.597-12.03c5.971,3.274,5.797,13.858-0.564,16.289C167.909,71.212,165.074,70.894,162.471,70.182z"/>
<path fill="#FFFFFF" d="M88.869,27.008c-0.337,0.768-0.616,1.561-0.825,2.373c-0.47,1.83-0.583,3.761-0.264,5.627  c0.294,1.72,1.215,3.09,2.55,4.216c3.408,2.876,8.148,3.42,12.587,3.842c3.176,0.302,6.681,0.519,9.242-1.383  c3.188-2.367,3.525-7.268,1.763-10.827c-1.762-3.559-5.092-6.048-8.399-8.247c-1.977-1.315-4.106-2.615-6.477-2.744  c-2.535-0.138-4.986,0.472-6.922,2.168c-0.975,0.854-1.726,2.132-2.377,3.251C89.423,25.842,89.128,26.418,88.869,27.008z"/>
<path fill="#FFFFFF" d="M139.925,166.008c0.181-0.84,0.514-1.659,0.877-2.401c0.542-1.109,1.4-2.027,2.445-2.679  c2.311-1.439,5.248-1.602,7.879-1.236c0.147,0.02,0.294,0.043,0.44,0.067c1.374,0.226,2.774,0.789,3.594,1.914  c1.441,1.977,0.474,4.949-1.417,6.5c-1.892,1.551-4.41,2.044-6.815,2.487c-1.417,0.261-2.916,0.514-4.346,0.194  c-0.638-0.143-1.278-0.36-1.737-0.834c-0.479-0.494-0.82-1.122-0.964-1.795C139.725,167.495,139.767,166.744,139.925,166.008z"/>
<path fill="#FFFFFF" d="M228.657,13.341c-3.844,3.678-5.177,10.046-2.353,14.554c2.824,4.508,9.96,5.864,13.748,2.129  c3.223-3.178,3.045-8.871,0.177-12.373s-7.801-4.881-12.28-4.22"/>
<path fill="#FFFFFF" d="M34.026,202.795c-2.58,4.476,0.969,11.104,6.125,11.437s9.529-5.782,7.547-10.553s-9.401-5.988-12.803-2.099  "/>
<path fill="#FFFFFF" d="M191.781,222.057c0.038-1.184,0.237-2.369,0.585-3.521c0.813-2.696,2.116-5.159,3.797-7.413  c1.228-1.646,2.593-3.186,3.961-4.714c1.784-1.992,3.859-3.854,6.407-4.665c6.782-2.158,13.273,3.654,18.033,8.945  c1.38,1.534,2.827,3.211,3.059,5.261c0.326,2.879-1.82,5.402-3.932,7.386c-3.89,3.654-8.285,6.941-13.37,8.563  c-5.085,1.622-10.963,1.383-15.389-1.599c-0.753-0.508-1.292-1.262-1.721-2.052C192.164,226.32,191.712,224.19,191.781,222.057z"/>
<path fill="#FFFFFF" d="M120.073,233.923c-4.377,2.741-4.278,10.297,0.17,12.921c4.448,2.625,11.11-0.941,11.393-6.098  s-5.948-9.431-10.657-7.309"/>
<path fill="#FFFFFF" d="M10.645,34.346c3.25-2.762,8.776-2.184,11.385,1.19c2.609,3.375,1.775,8.868-1.717,11.317  c-3.7,2.595-9.494,1.191-11.734-2.734S6.734,36.612,10.645,34.346z"/>
<path fill="#FFFFFF" d="M236.798,128.145c-1.04,2.818,0.541,6.063,2.93,7.883s6.637,4.402,8.34,3.215s0.209-7.738-2.618-10.164  C242.623,126.653,240.05,126.328,236.798,128.145"/>
<path d="M67.86,116.993c-0.428,0.284-0.885,0.528-1.304,0.826c-0.605,0.429-1.156,0.933-1.644,1.491  c-1.683,1.924-2.629,4.501-2.532,7.06c0.144,3.823,2.503,7.429,5.835,9.31c4.046,2.283,9.32,1.998,13.286-0.422  c3.966-2.42,6.587-6.79,7.211-11.394c0.523-3.855-0.383-8.042-3.066-10.86c-2.683-2.818-7.295-3.879-10.644-1.899  c-0.836,0.494-1.641,1.041-2.401,1.647c-0.969,0.773-1.856,1.64-2.754,2.493c-0.496,0.471-0.985,0.962-1.511,1.399  C68.184,116.769,68.024,116.884,67.86,116.993z"/>
<path d="M162.471,65.182c-1.378-0.377-2.287-0.351-3.486-1.212c-1.09-0.783-1.994-1.768-2.589-2.981  c-3.971-8.103,7.611-15.86,14.597-12.03c5.971,3.274,5.797,13.858-0.564,16.289C167.909,66.212,165.074,65.894,162.471,65.182z"/>
<path d="M88.869,22.008c-0.337,0.768-0.616,1.561-0.825,2.373c-0.47,1.83-0.583,3.761-0.264,5.627c0.294,1.72,1.215,3.09,2.55,4.216  c3.408,2.876,8.148,3.42,12.587,3.842c3.176,0.302,6.681,0.519,9.242-1.383c3.188-2.367,3.525-7.268,1.763-10.827  c-1.762-3.559-5.092-6.048-8.399-8.247c-1.977-1.315-4.106-2.615-6.477-2.744c-2.535-0.138-4.986,0.472-6.922,2.168  c-0.975,0.854-1.726,2.132-2.377,3.251C89.423,20.842,89.128,21.418,88.869,22.008z"/>
<path d="M139.925,161.008c0.181-0.84,0.514-1.659,0.877-2.401c0.542-1.109,1.4-2.027,2.445-2.679  c2.311-1.439,5.248-1.602,7.879-1.236c0.147,0.02,0.294,0.043,0.44,0.067c1.374,0.226,2.774,0.789,3.594,1.914  c1.441,1.977,0.474,4.949-1.417,6.5c-1.892,1.551-4.41,2.044-6.815,2.487c-1.417,0.261-2.916,0.514-4.346,0.194  c-0.638-0.143-1.278-0.36-1.737-0.834c-0.479-0.494-0.82-1.122-0.964-1.795C139.725,162.495,139.767,161.744,139.925,161.008z"/>
<path d="M228.657,8.341c-3.844,3.678-5.177,10.046-2.353,14.554c2.824,4.508,9.96,5.864,13.748,2.129  c3.223-3.178,3.045-8.871,0.177-12.373s-7.801-4.881-12.28-4.22"/>
<path d="M34.026,197.795c-2.58,4.476,0.969,11.104,6.125,11.437s9.529-5.782,7.547-10.553s-9.401-5.988-12.803-2.099"/>
<path d="M191.781,217.057c0.038-1.184,0.237-2.369,0.585-3.521c0.813-2.696,2.116-5.159,3.797-7.413  c1.228-1.646,2.593-3.186,3.961-4.714c1.784-1.992,3.859-3.854,6.407-4.665c6.782-2.158,13.273,3.654,18.033,8.945  c1.38,1.534,2.827,3.211,3.059,5.261c0.326,2.879-1.82,5.402-3.932,7.386c-3.89,3.654-8.285,6.941-13.37,8.563  c-5.085,1.622-10.963,1.383-15.389-1.599c-0.753-0.508-1.292-1.262-1.721-2.052C192.164,221.32,191.712,219.19,191.781,217.057z"/>
<path d="M120.073,228.923c-4.377,2.741-4.278,10.297,0.17,12.921c4.448,2.625,11.11-0.941,11.393-6.098s-5.948-9.431-10.657-7.309"/>
<path d="M10.645,29.346c3.25-2.762,8.776-2.184,11.385,1.19s1.775,8.868-1.717,11.317c-3.7,2.595-9.494,1.191-11.734-2.734  S6.734,31.612,10.645,29.346z"/>
<path d="M236.798,123.145c-1.04,2.818,0.541,6.063,2.93,7.883s6.637,4.402,8.34,3.215s0.209-7.738-2.618-10.164  C242.623,121.653,240.05,121.328,236.798,123.145"/>


  </g></defs>
  <rect fill="#00fa" width="256" height="256"/>
  <g>
    <use xlink:href="#id-0.6471355538439401" x="-256" y="-256"/><use xlink:href="#id-0.6471355538439401" x="0" y="-256"/><use xlink:href="#id-0.6471355538439401" x="256" y="-256"/><use xlink:href="#id-0.6471355538439401" x="-256" y="0"/><use xlink:href="#id-0.6471355538439401" x="0" y="0"/><use xlink:href="#id-0.6471355538439401" x="256" y="0"/><use xlink:href="#id-0.6471355538439401" x="-256" y="256"/><use xlink:href="#id-0.6471355538439401" x="0" y="256"/><use xlink:href="#id-0.6471355538439401" x="256" y="256"/>
    <animateTransform attributeName="transform" type="translate" dur="4s" repeatCount="indefinite" keyTimes="0;1" values="0;256"/>
  </g>
</svg>